<mxfile host="app.diagrams.net" modified="2024-07-17T03:44:46.545Z" agent="Mozilla/5.0 (Macintosh; Intel Mac OS X 10_15_7) AppleWebKit/537.36 (KHTML, like Gecko) Chrome/126.0.0.0 Safari/537.36" etag="RdcxxHffGyWpQ1PzTVUb" version="24.6.5" type="github">
  <diagram name="第 1 页" id="GepeLTyNPejL2qz-uSBc">
    <mxGraphModel dx="795" dy="448" grid="1" gridSize="10" guides="1" tooltips="1" connect="1" arrows="1" fold="1" page="1" pageScale="1" pageWidth="827" pageHeight="1169" math="0" shadow="0">
      <root>
        <mxCell id="0" />
        <mxCell id="1" parent="0" />
        <mxCell id="QHJJbTwAhyN2m23Sn8J2-16" style="edgeStyle=orthogonalEdgeStyle;rounded=0;orthogonalLoop=1;jettySize=auto;html=1;" edge="1" parent="1" source="QHJJbTwAhyN2m23Sn8J2-1" target="QHJJbTwAhyN2m23Sn8J2-2">
          <mxGeometry relative="1" as="geometry" />
        </mxCell>
        <mxCell id="QHJJbTwAhyN2m23Sn8J2-1" value="CNI-ADD" style="rounded=0;whiteSpace=wrap;html=1;fillColor=none;" vertex="1" parent="1">
          <mxGeometry x="280" y="80" width="120" height="40" as="geometry" />
        </mxCell>
        <mxCell id="QHJJbTwAhyN2m23Sn8J2-15" style="edgeStyle=orthogonalEdgeStyle;rounded=0;orthogonalLoop=1;jettySize=auto;html=1;entryX=0.5;entryY=0;entryDx=0;entryDy=0;" edge="1" parent="1" source="QHJJbTwAhyN2m23Sn8J2-2" target="QHJJbTwAhyN2m23Sn8J2-5">
          <mxGeometry relative="1" as="geometry" />
        </mxCell>
        <mxCell id="QHJJbTwAhyN2m23Sn8J2-2" value="加载“网络状态”文件" style="rounded=0;whiteSpace=wrap;html=1;fillColor=none;" vertex="1" parent="1">
          <mxGeometry x="280" y="160" width="120" height="40" as="geometry" />
        </mxCell>
        <mxCell id="QHJJbTwAhyN2m23Sn8J2-3" value="CNI-DEL" style="rounded=0;whiteSpace=wrap;html=1;fillColor=none;" vertex="1" parent="1">
          <mxGeometry x="645" y="80" width="120" height="40" as="geometry" />
        </mxCell>
        <mxCell id="QHJJbTwAhyN2m23Sn8J2-23" style="edgeStyle=orthogonalEdgeStyle;rounded=0;orthogonalLoop=1;jettySize=auto;html=1;entryX=0;entryY=0.5;entryDx=0;entryDy=0;exitX=0.5;exitY=1;exitDx=0;exitDy=0;" edge="1" parent="1" source="QHJJbTwAhyN2m23Sn8J2-4" target="QHJJbTwAhyN2m23Sn8J2-12">
          <mxGeometry relative="1" as="geometry" />
        </mxCell>
        <mxCell id="QHJJbTwAhyN2m23Sn8J2-4" value="创建新的 ENI" style="rounded=0;whiteSpace=wrap;html=1;fillColor=none;" vertex="1" parent="1">
          <mxGeometry x="155" y="370" width="90" height="40" as="geometry" />
        </mxCell>
        <mxCell id="QHJJbTwAhyN2m23Sn8J2-17" style="edgeStyle=orthogonalEdgeStyle;rounded=0;orthogonalLoop=1;jettySize=auto;html=1;entryX=0.5;entryY=0;entryDx=0;entryDy=0;" edge="1" parent="1" source="QHJJbTwAhyN2m23Sn8J2-5" target="QHJJbTwAhyN2m23Sn8J2-7">
          <mxGeometry relative="1" as="geometry" />
        </mxCell>
        <mxCell id="QHJJbTwAhyN2m23Sn8J2-21" style="edgeStyle=orthogonalEdgeStyle;rounded=0;orthogonalLoop=1;jettySize=auto;html=1;" edge="1" parent="1" source="QHJJbTwAhyN2m23Sn8J2-5" target="QHJJbTwAhyN2m23Sn8J2-4">
          <mxGeometry relative="1" as="geometry" />
        </mxCell>
        <mxCell id="QHJJbTwAhyN2m23Sn8J2-5" value="网络状态文件中&lt;div&gt;是否记录了ENI&lt;/div&gt;" style="rhombus;whiteSpace=wrap;html=1;fillColor=none;" vertex="1" parent="1">
          <mxGeometry x="280" y="230" width="120" height="80" as="geometry" />
        </mxCell>
        <mxCell id="QHJJbTwAhyN2m23Sn8J2-6" value="Y" style="text;html=1;align=center;verticalAlign=middle;resizable=0;points=[];autosize=1;strokeColor=none;fillColor=none;" vertex="1" parent="1">
          <mxGeometry x="305" y="298" width="30" height="30" as="geometry" />
        </mxCell>
        <mxCell id="QHJJbTwAhyN2m23Sn8J2-18" style="edgeStyle=orthogonalEdgeStyle;rounded=0;orthogonalLoop=1;jettySize=auto;html=1;entryX=0.5;entryY=0;entryDx=0;entryDy=0;" edge="1" parent="1" source="QHJJbTwAhyN2m23Sn8J2-7" target="QHJJbTwAhyN2m23Sn8J2-12">
          <mxGeometry relative="1" as="geometry" />
        </mxCell>
        <mxCell id="QHJJbTwAhyN2m23Sn8J2-22" style="edgeStyle=orthogonalEdgeStyle;rounded=0;orthogonalLoop=1;jettySize=auto;html=1;" edge="1" parent="1" source="QHJJbTwAhyN2m23Sn8J2-7" target="QHJJbTwAhyN2m23Sn8J2-4">
          <mxGeometry relative="1" as="geometry" />
        </mxCell>
        <mxCell id="QHJJbTwAhyN2m23Sn8J2-7" value="可用 IP / IP 额度&lt;div&gt;&amp;lt; 95%?&lt;/div&gt;" style="rhombus;whiteSpace=wrap;html=1;fillColor=none;" vertex="1" parent="1">
          <mxGeometry x="280" y="350" width="120" height="80" as="geometry" />
        </mxCell>
        <mxCell id="QHJJbTwAhyN2m23Sn8J2-8" value="Y" style="text;html=1;align=center;verticalAlign=middle;resizable=0;points=[];autosize=1;strokeColor=none;fillColor=none;" vertex="1" parent="1">
          <mxGeometry x="305" y="420" width="30" height="30" as="geometry" />
        </mxCell>
        <mxCell id="QHJJbTwAhyN2m23Sn8J2-11" value="N" style="text;html=1;align=center;verticalAlign=middle;resizable=0;points=[];autosize=1;strokeColor=none;fillColor=none;" vertex="1" parent="1">
          <mxGeometry x="245" y="238" width="30" height="30" as="geometry" />
        </mxCell>
        <mxCell id="QHJJbTwAhyN2m23Sn8J2-19" style="edgeStyle=orthogonalEdgeStyle;rounded=0;orthogonalLoop=1;jettySize=auto;html=1;" edge="1" parent="1" source="QHJJbTwAhyN2m23Sn8J2-12" target="QHJJbTwAhyN2m23Sn8J2-13">
          <mxGeometry relative="1" as="geometry" />
        </mxCell>
        <mxCell id="QHJJbTwAhyN2m23Sn8J2-12" value="向 ipManager&amp;nbsp;&lt;div&gt;申请 IP&lt;/div&gt;" style="rounded=0;whiteSpace=wrap;html=1;fillColor=none;" vertex="1" parent="1">
          <mxGeometry x="280" y="460" width="120" height="40" as="geometry" />
        </mxCell>
        <mxCell id="QHJJbTwAhyN2m23Sn8J2-20" style="edgeStyle=orthogonalEdgeStyle;rounded=0;orthogonalLoop=1;jettySize=auto;html=1;entryX=0.5;entryY=0;entryDx=0;entryDy=0;" edge="1" parent="1" source="QHJJbTwAhyN2m23Sn8J2-13" target="QHJJbTwAhyN2m23Sn8J2-14">
          <mxGeometry relative="1" as="geometry" />
        </mxCell>
        <mxCell id="QHJJbTwAhyN2m23Sn8J2-13" value="将 ip 与&amp;nbsp;&lt;div&gt;&lt;span style=&quot;background-color: initial;&quot;&gt;弹性网卡&amp;nbsp;&lt;/span&gt;绑定&lt;/div&gt;" style="rounded=0;whiteSpace=wrap;html=1;fillColor=none;" vertex="1" parent="1">
          <mxGeometry x="280" y="540" width="120" height="40" as="geometry" />
        </mxCell>
        <mxCell id="QHJJbTwAhyN2m23Sn8J2-14" value="配置相关路由" style="rounded=0;whiteSpace=wrap;html=1;fillColor=none;" vertex="1" parent="1">
          <mxGeometry x="280" y="620" width="120" height="40" as="geometry" />
        </mxCell>
        <mxCell id="QHJJbTwAhyN2m23Sn8J2-24" value="N" style="text;html=1;align=center;verticalAlign=middle;resizable=0;points=[];autosize=1;strokeColor=none;fillColor=none;" vertex="1" parent="1">
          <mxGeometry x="245" y="360" width="30" height="30" as="geometry" />
        </mxCell>
        <mxCell id="QHJJbTwAhyN2m23Sn8J2-26" value="加载“网络状态”文件" style="rounded=0;whiteSpace=wrap;html=1;fillColor=none;" vertex="1" parent="1">
          <mxGeometry x="645" y="160" width="120" height="40" as="geometry" />
        </mxCell>
      </root>
    </mxGraphModel>
  </diagram>
</mxfile>
